<svg width="1583" height="1150" viewBox="0 0 1583 1150" fill="none" xmlns="http://www.w3.org/2000/svg">
<rect width="461.545" height="346.159" rx="12.5876" transform="matrix(0.866025 -0.5 0.868804 0.495155 881.572 698.181)" fill="#F3F5F8"/>
<path d="M892.508 704.414C886.468 700.971 886.453 695.363 892.473 691.887L1270.38 473.702C1276.4 470.226 1286.18 470.199 1292.22 473.641L1325.03 492.339L925.317 723.112L892.508 704.414Z" fill="#E0E7EC"/>
<path fill-rule="evenodd" clip-rule="evenodd" d="M967.034 673.933C970.054 675.654 970.062 678.458 967.052 680.196C964.042 681.934 959.153 681.947 956.133 680.226C953.113 678.505 953.105 675.701 956.116 673.963C959.126 672.225 964.014 672.211 967.034 673.933ZM930.715 701.175C933.725 699.437 933.717 696.633 930.697 694.912C927.677 693.191 922.789 693.204 919.778 694.942C916.768 696.68 916.776 699.484 919.796 701.206C922.816 702.927 927.704 702.913 930.715 701.175ZM948.883 690.685C951.894 688.948 951.886 686.143 948.866 684.422C945.846 682.701 940.957 682.715 937.947 684.453C934.937 686.191 934.945 688.995 937.965 690.716C940.985 692.437 945.873 692.423 948.883 690.685Z" fill="#94A2AB"/>
<path d="M925.317 723.112L1325.03 492.34L1574.74 634.655C1578.76 636.95 1578.77 640.689 1574.76 643.007L1189.58 865.387C1185.57 867.705 1179.05 867.723 1175.03 865.428L925.317 723.112Z" fill="#F3F5F8"/>
<mask id="mask0_172_580" style="mask-type:alpha" maskUnits="userSpaceOnUse" x="925" y="492" width="653" height="376">
<path d="M925.317 723.112L1325.03 492.34L1574.74 634.655C1578.76 636.95 1578.77 640.689 1574.76 643.007L1189.58 865.387C1185.57 867.705 1179.05 867.723 1175.03 865.428L925.317 723.112Z" fill="white"/>
</mask>
<g mask="url(#mask0_172_580)">
<path fill-rule="evenodd" clip-rule="evenodd" d="M1481.27 683.526C1486.29 680.63 1486.28 675.956 1481.24 673.088L1461.14 661.63L1221.31 800.094L1241.42 811.551C1246.45 814.42 1254.6 814.397 1259.62 811.5L1349.37 759.681L1371.28 772.17L1350.93 783.918L1362.62 790.579L1445.47 742.746L1433.78 736.085L1413.43 747.834L1391.52 735.345L1481.27 683.526Z" fill="#C7D3DC"/>
<path d="M1094.57 727.859C1089.54 724.99 1089.52 720.317 1094.54 717.42L1316.2 589.446C1321.22 586.549 1329.36 586.527 1334.4 589.395L1465.52 664.128L1225.7 802.591L1094.57 727.859Z" fill="#E0E7EC"/>
<path fill-rule="evenodd" clip-rule="evenodd" d="M1279.97 683.61C1281.84 682.529 1281.82 680.776 1279.93 679.694C1278.03 678.613 1274.97 678.612 1273.1 679.693C1271.23 680.774 1271.25 682.527 1273.15 683.608C1275.04 684.69 1278.1 684.691 1279.97 683.61ZM1291.39 700.89L1272.54 711.773C1271.12 712.596 1268.67 712.203 1268.21 711.077L1260.62 692.561C1260.19 691.514 1261.79 690.56 1263.63 690.772C1269 691.393 1278.97 692.549 1287.66 693.587L1285.49 688.356C1285.07 687.329 1286.61 686.384 1288.42 686.556L1307.44 688.355C1309.49 688.549 1310.31 689.983 1308.86 690.838L1301.3 695.29L1291.39 700.89Z" fill="#94A2AB"/>
</g>
<rect width="104.897" height="16.7835" rx="4.19586" transform="matrix(0.866025 -0.5 0.868804 0.495155 1127.14 660.959)" fill="#E0E7EC"/>
<rect width="209.793" height="16.7835" rx="4.19586" transform="matrix(0.866025 -0.5 0.868804 0.495155 1058.02 673.678)" fill="#94A2AB"/>
<rect width="461.545" height="346.159" rx="12.5876" transform="matrix(0.866025 -0.5 0.868804 0.495155 401.423 978.114)" fill="#F3F5F8"/>
<path d="M412.359 984.347C406.319 980.905 406.304 975.296 412.324 971.82L790.232 753.635C796.252 750.159 806.029 750.132 812.069 753.574L844.877 772.273L445.168 1003.05L412.359 984.347Z" fill="#E0E7EC"/>
<path fill-rule="evenodd" clip-rule="evenodd" d="M486.885 953.866C489.905 955.587 489.913 958.391 486.903 960.129C483.893 961.867 479.004 961.881 475.984 960.16C472.964 958.439 472.956 955.634 475.967 953.896C478.977 952.158 483.865 952.145 486.885 953.866ZM468.734 970.619C471.745 968.881 471.737 966.077 468.717 964.356C465.697 962.635 460.808 962.648 457.798 964.386C454.788 966.124 454.796 968.928 457.816 970.649C460.836 972.371 465.724 972.357 468.734 970.619ZM450.566 981.109C453.576 979.371 453.568 976.567 450.548 974.845C447.529 973.124 442.64 973.138 439.63 974.876C436.62 976.614 436.627 979.418 439.647 981.139C442.667 982.86 447.556 982.847 450.566 981.109Z" fill="#94A2AB"/>
<path fill-rule="evenodd" clip-rule="evenodd" d="M595.726 1001.7L592.776 1007.18C590.886 1010.69 582.806 1011.45 579.103 1008.46L573.321 1003.8L563.33 1003.9C556.932 1003.96 553.205 999.789 557.024 996.837L562.987 992.226L559.763 986.808C557.698 983.337 563.475 980.002 569.539 981.164L579.006 982.978L587.004 979.528C592.126 977.318 599.423 979.429 599.351 983.099L599.24 988.831L607.407 992.117C612.637 994.222 611.37 998.862 605.262 999.968L595.726 1001.7Z" fill="#FFD200"/>
<path fill-rule="evenodd" clip-rule="evenodd" d="M595.726 1001.7L589.696 1012.9C589.066 1014.07 586.373 1014.32 585.138 1013.33L573.321 1003.8L552.902 1004C550.769 1004.02 549.527 1002.63 550.8 1001.65L562.987 992.227L556.398 981.151C555.71 979.995 557.635 978.883 559.657 979.27L579.006 982.978L595.352 975.927C597.06 975.19 599.492 975.893 599.468 977.117L599.24 988.831L615.931 995.548C617.675 996.249 617.252 997.796 615.217 998.165L595.726 1001.7Z" fill="#FFD200"/>
<path fill-rule="evenodd" clip-rule="evenodd" d="M612.715 1048.51C610.709 1049.67 610.714 1051.54 612.727 1052.68L620.018 1056.84C622.031 1057.99 625.29 1057.98 627.297 1056.82L692.704 1019.06C694.711 1017.9 694.706 1016.03 692.692 1014.88L685.402 1010.73C683.388 1009.58 680.129 1009.59 678.122 1010.75L612.715 1048.51ZM645.495 1056.77C643.488 1057.93 643.493 1059.8 645.506 1060.94L652.797 1065.1C654.81 1066.25 658.069 1066.24 660.076 1065.08L707.315 1037.81C709.322 1036.65 709.316 1034.78 707.303 1033.63L700.012 1029.47C697.999 1028.33 694.74 1028.34 692.733 1029.5L645.495 1056.77Z" fill="#E0E7EC"/>
<rect width="83.9173" height="16.7835" rx="4.19586" transform="matrix(0.866025 -0.5 0.868804 0.495155 585.387 1037.1)" fill="#94A2AB"/>
<rect width="83.9173" height="33.5669" rx="16.7835" transform="matrix(0.866025 -0.5 0.868804 0.495155 672.876 1086.96)" fill="#649DFF"/>
<path fill-rule="evenodd" clip-rule="evenodd" d="M719.273 930.367L713.242 941.57C712.612 942.74 709.919 942.992 708.685 941.997L696.867 932.466L676.449 932.672C674.316 932.694 673.074 931.303 674.347 930.319L686.534 920.897L679.945 909.822C679.256 908.665 681.182 907.553 683.203 907.941L702.553 911.648L718.899 904.597C720.606 903.86 723.039 904.564 723.015 905.787L722.786 917.501L739.478 924.218C741.221 924.92 740.799 926.466 738.763 926.835L719.273 930.367Z" fill="#FFD200"/>
<path fill-rule="evenodd" clip-rule="evenodd" d="M736.262 977.179C734.255 978.338 734.26 980.207 736.274 981.355L743.564 985.51C745.578 986.657 748.837 986.648 750.843 985.49L816.251 947.727C818.257 946.568 818.252 944.699 816.239 943.551L808.948 939.396C806.935 938.249 803.676 938.258 801.669 939.416L736.262 977.179ZM769.041 985.439C767.034 986.597 767.04 988.467 769.053 989.614L776.344 993.77C778.357 994.917 781.616 994.908 783.623 993.749L830.861 966.476C832.868 965.317 832.863 963.448 830.85 962.301L823.559 958.145C821.546 956.998 818.287 957.007 816.28 958.166L769.041 985.439Z" fill="#E0E7EC"/>
<rect width="83.9173" height="16.7835" rx="4.19586" transform="matrix(0.866025 -0.5 0.868804 0.495155 708.933 965.773)" fill="#94A2AB"/>
<rect width="83.9173" height="33.5669" rx="16.7835" transform="matrix(0.866025 -0.5 0.868804 0.495155 796.423 1015.64)" fill="#649DFF"/>
<path fill-rule="evenodd" clip-rule="evenodd" d="M842.819 859.037L836.789 870.24C836.159 871.41 833.466 871.662 832.231 870.667L820.414 861.136L799.995 861.342C797.863 861.364 796.62 859.973 797.893 858.989L810.08 849.567L803.491 838.492C802.803 837.335 804.729 836.223 806.75 836.611L826.099 840.319L842.445 833.267C844.153 832.531 846.585 833.234 846.561 834.458L846.333 846.171L863.025 852.888C864.768 853.59 864.346 855.137 862.31 855.505L842.819 859.037Z" fill="#FFD200"/>
<path fill-rule="evenodd" clip-rule="evenodd" d="M859.809 905.849C857.802 907.008 857.807 908.877 859.82 910.025L867.111 914.18C869.124 915.328 872.383 915.318 874.39 914.16L939.797 876.397C941.804 875.238 941.799 873.369 939.786 872.221L932.495 868.066C930.482 866.919 927.223 866.928 925.216 868.087L859.809 905.849ZM892.588 914.109C890.581 915.268 890.586 917.137 892.6 918.285L899.89 922.44C901.904 923.587 905.163 923.578 907.169 922.419L954.408 895.146C956.415 893.988 956.41 892.118 954.396 890.971L947.105 886.816C945.092 885.668 941.833 885.677 939.826 886.836L892.588 914.109Z" fill="#E0E7EC"/>
<rect width="83.9173" height="16.7835" rx="4.19586" transform="matrix(0.866025 -0.5 0.868804 0.495155 832.48 894.443)" fill="#94A2AB"/>
<rect width="83.9173" height="33.5669" rx="16.7835" transform="matrix(0.866025 -0.5 0.868804 0.495155 919.969 944.306)" fill="#649DFF"/>
<rect width="461.55" height="346.16" rx="6" transform="matrix(0.866025 -0.5 0.868804 0.495155 59.1911 230.775)" fill="#F3F5F8"/>
<path d="M64.4039 233.746C61.5249 232.105 61.5175 229.432 64.3872 227.775L453.709 2.9999C456.579 1.34305 461.239 1.33004 464.118 2.97084L502.65 24.9313L102.936 255.706L64.4039 233.746Z" fill="#E0E7EC"/>
<path fill-rule="evenodd" clip-rule="evenodd" d="M108.334 233.769C111.344 232.031 111.337 229.227 108.317 227.506C105.297 225.785 100.408 225.798 97.3979 227.536C94.3876 229.274 94.3954 232.079 97.4154 233.8C100.435 235.521 105.324 235.507 108.334 233.769ZM126.503 223.279C129.513 221.541 129.505 218.737 126.486 217.016C123.466 215.295 118.577 215.309 115.567 217.047C112.556 218.785 112.564 221.589 115.584 223.31C118.604 225.031 123.493 225.017 126.503 223.279ZM144.654 206.526C147.674 208.248 147.682 211.052 144.672 212.79C141.661 214.528 136.773 214.541 133.753 212.82C130.733 211.099 130.725 208.295 133.736 206.557C136.746 204.819 141.634 204.805 144.654 206.526Z" fill="#94A2AB"/>
<rect width="193.012" height="115.387" rx="4" transform="matrix(0.866025 -0.5 0.868804 0.495155 359.308 176.697)" fill="#E0E7EC"/>
<path fill-rule="evenodd" clip-rule="evenodd" d="M495.947 151.339C497.063 150.695 497.052 149.652 495.924 149.008C494.795 148.365 492.976 148.366 491.86 149.01C490.745 149.654 490.755 150.697 491.884 151.341C493.013 151.984 494.832 151.983 495.947 151.339ZM502.733 161.62L491.109 168.331C490.429 168.723 489.265 168.536 489.046 167.998L484.311 156.407C484.108 155.908 484.867 155.453 485.743 155.554C488.799 155.905 495.076 156.629 500.517 157.276L499.124 153.906C498.922 153.417 499.655 152.966 500.521 153.048L512.867 154.209C513.844 154.301 514.237 154.985 513.544 155.393L508.631 158.285L502.733 161.62Z" fill="#94A2AB"/>
<path fill-rule="evenodd" clip-rule="evenodd" d="M137.418 252.527C136.462 253.079 136.464 253.97 137.424 254.517L141.239 256.692C142.199 257.239 143.753 257.234 144.709 256.682L155.78 250.29C156.737 249.738 156.734 248.847 155.775 248.3L151.959 246.125C150.999 245.578 149.446 245.583 148.489 246.135L137.418 252.527ZM446.288 74.2007C445.332 74.753 445.334 75.6441 446.294 76.191L450.109 78.3656C451.069 78.9126 452.622 78.9082 453.579 78.3559L504.621 48.8866C505.578 48.3343 505.576 47.4432 504.616 46.8963L500.8 44.7217C499.841 44.1748 498.287 44.1791 497.331 44.7314L446.288 74.2007ZM348.182 132.836C347.223 132.289 347.22 131.398 348.177 130.845L399.219 101.376C400.176 100.824 401.729 100.82 402.689 101.366L406.504 103.541C407.464 104.088 407.466 104.979 406.51 105.531L355.467 135.001C354.511 135.553 352.957 135.557 351.998 135.01L348.182 132.836ZM409.951 95.1803C408.994 95.7326 408.997 96.6236 409.956 97.1706L413.772 99.3452C414.731 99.8921 416.285 99.8878 417.241 99.3355L442.847 84.5519C443.804 83.9996 443.802 83.1085 442.842 82.5616L439.026 80.3869C438.067 79.84 436.513 79.8443 435.557 80.3966L409.951 95.1803Z" fill="#94A2AB"/>
<path fill-rule="evenodd" clip-rule="evenodd" d="M208.445 272.163C207.489 272.715 207.491 273.606 208.451 274.153L219.557 280.483C220.517 281.03 222.07 281.025 223.027 280.473L328.576 219.534C329.532 218.982 329.53 218.091 328.57 217.544L317.464 211.214C316.504 210.667 314.951 210.672 313.994 211.224L208.445 272.163ZM232.14 285.667C231.184 286.219 231.186 287.11 232.146 287.657L243.252 293.987C244.212 294.534 245.765 294.53 246.722 293.978L334.102 243.529C335.059 242.976 335.056 242.085 334.097 241.538L322.99 235.209C322.03 234.662 320.477 234.666 319.52 235.218L232.14 285.667ZM279.536 314.666C278.577 314.119 278.574 313.228 279.531 312.676L330.573 283.207C331.53 282.654 333.083 282.65 334.043 283.197L345.149 289.527C346.109 290.074 346.111 290.965 345.155 291.517L294.112 320.986C293.156 321.539 291.602 321.543 290.643 320.996L279.536 314.666ZM255.836 299.172C254.879 299.724 254.881 300.615 255.841 301.162L266.948 307.492C267.907 308.039 269.461 308.034 270.417 307.482L375.966 246.543C376.923 245.991 376.92 245.1 375.96 244.553L364.854 238.223C363.894 237.676 362.341 237.681 361.384 238.233L255.836 299.172Z" fill="#E0E7EC"/>
<rect width="146.857" height="41.9588" rx="15" transform="matrix(0.866025 -0.5 0.868804 0.495155 421.478 283.001)" fill="#649DFF"/>
<rect width="461.55" height="346.16" rx="6" transform="matrix(0.866025 -0.5 0.868804 0.495155 0.00109863 752.552)" fill="#F3F5F8"/>
<path d="M5.21392 755.523C2.33496 753.882 2.3275 751.209 5.19725 749.552L394.519 524.777C397.389 523.12 402.049 523.107 404.928 524.748L443.46 546.708L43.7459 777.483L5.21392 755.523Z" fill="#E0E7EC"/>
<path fill-rule="evenodd" clip-rule="evenodd" d="M49.1442 755.546C52.1545 753.808 52.1467 751.004 49.1267 749.283C46.1068 747.562 41.2183 747.576 38.208 749.314C35.1977 751.052 35.2055 753.856 38.2254 755.577C41.2454 757.298 46.1339 757.284 49.1442 755.546ZM67.313 745.057C70.3233 743.319 70.3155 740.514 67.2955 738.793C64.2756 737.072 59.3871 737.086 56.3768 738.824C53.3665 740.562 53.3743 743.366 56.3942 745.087C59.4142 746.808 64.3027 746.795 67.313 745.057ZM85.4643 728.303C88.4843 730.025 88.4921 732.829 85.4818 734.567C82.4715 736.305 77.583 736.318 74.5631 734.597C71.5431 732.876 71.5353 730.072 74.5456 728.334C77.5559 726.596 82.4444 726.582 85.4643 728.303Z" fill="#94A2AB"/>
<rect width="125.877" height="104.897" rx="4" transform="matrix(0.866025 -0.5 0.868804 0.495155 89.2378 776.312)" fill="#E0E7EC"/>
<path fill-rule="evenodd" clip-rule="evenodd" d="M191.219 764.983C192.335 764.339 192.324 763.296 191.195 762.652C190.067 762.009 188.248 762.01 187.132 762.654C186.017 763.298 186.027 764.341 187.156 764.985C188.285 765.628 190.104 765.627 191.219 764.983ZM198.005 775.264L186.381 781.975C185.701 782.367 184.537 782.18 184.318 781.642L179.583 770.051C179.379 769.552 180.139 769.097 181.015 769.198C184.071 769.549 190.348 770.273 195.789 770.92L194.396 767.55C194.194 767.061 194.927 766.61 195.792 766.692L208.139 767.853C209.116 767.945 209.509 768.629 208.816 769.037L203.903 771.929L198.005 775.264Z" fill="#94A2AB"/>
<rect width="125.877" height="104.897" rx="4" transform="matrix(0.866025 -0.5 0.868804 0.495155 198.6 838.641)" fill="#E0E7EC"/>
<path fill-rule="evenodd" clip-rule="evenodd" d="M300.581 827.311C301.697 826.667 301.686 825.624 300.557 824.981C299.429 824.337 297.609 824.338 296.494 824.982C295.378 825.626 295.389 826.67 296.518 827.313C297.646 827.956 299.466 827.956 300.581 827.311ZM307.366 837.592L295.743 844.303C295.063 844.695 293.899 844.508 293.679 843.971L288.945 832.379C288.741 831.88 289.501 831.426 290.377 831.526C293.433 831.877 299.709 832.601 305.151 833.249L303.758 829.879C303.556 829.389 304.289 828.938 305.154 829.02L317.501 830.182C318.478 830.273 318.87 830.957 318.178 831.365L313.264 834.258L307.366 837.592Z" fill="#94A2AB"/>
<path fill-rule="evenodd" clip-rule="evenodd" d="M256.428 723.699C255.472 724.251 255.474 725.142 256.434 725.689L267.54 732.019C268.5 732.566 270.053 732.562 271.01 732.009L431.065 639.601C432.022 639.049 432.019 638.158 431.059 637.611L419.953 631.281C418.993 630.734 417.44 630.739 416.483 631.291L256.428 723.699ZM280.123 737.203C279.167 737.756 279.169 738.647 280.129 739.194L291.235 745.523C292.195 746.07 293.748 746.066 294.705 745.514L436.591 663.596C437.548 663.043 437.545 662.152 436.586 661.605L425.479 655.275C424.52 654.729 422.966 654.733 422.01 655.285L280.123 737.203Z" fill="#E0E7EC"/>
<rect width="209.795" height="16.7835" rx="2" transform="matrix(0.866025 -0.5 0.868804 0.495155 231.001 711.194)" fill="#94A2AB"/>
<path fill-rule="evenodd" clip-rule="evenodd" d="M365.79 786.027C364.834 786.58 364.836 787.471 365.796 788.018L376.902 794.347C377.862 794.894 379.415 794.89 380.372 794.338L467.752 743.889C468.708 743.337 468.706 742.445 467.746 741.898L456.64 735.569C455.68 735.022 454.127 735.026 453.17 735.578L365.79 786.027ZM389.485 799.532C388.529 800.084 388.531 800.975 389.491 801.522L400.597 807.852C401.557 808.399 403.11 808.394 404.067 807.842L545.953 725.924C546.91 725.372 546.907 724.481 545.948 723.934L534.841 717.604C533.882 717.057 532.328 717.061 531.372 717.613L389.485 799.532Z" fill="#E0E7EC"/>
<rect width="209.795" height="16.7835" rx="2" transform="matrix(0.866025 -0.5 0.868804 0.495155 340.363 773.523)" fill="#94A2AB"/>
<rect width="461.55" height="346.16" rx="6" transform="matrix(0.866025 -0.5 0.868804 0.495155 462.731 463.032)" fill="#F3F5F8"/>
<path d="M467.944 466.003C465.065 464.362 465.058 461.689 467.927 460.032L857.249 235.257C860.119 233.6 864.779 233.587 867.658 235.228L906.19 257.188L506.476 487.963L467.944 466.003Z" fill="#E0E7EC"/>
<path fill-rule="evenodd" clip-rule="evenodd" d="M511.874 466.026C514.884 464.288 514.877 461.484 511.857 459.763C508.837 458.042 503.948 458.056 500.938 459.794C497.928 461.532 497.935 464.336 500.955 466.057C503.975 467.778 508.864 467.764 511.874 466.026ZM530.043 455.537C533.053 453.799 533.045 450.994 530.026 449.273C527.006 447.552 522.117 447.566 519.107 449.304C516.096 451.042 516.104 453.846 519.124 455.567C522.144 457.288 527.033 457.275 530.043 455.537ZM548.194 438.784C551.214 440.505 551.222 443.309 548.212 445.047C545.202 446.785 540.313 446.799 537.293 445.077C534.273 443.356 534.265 440.552 537.276 438.814C540.286 437.076 545.174 437.062 548.194 438.784Z" fill="#94A2AB"/>
<path fill-rule="evenodd" clip-rule="evenodd" d="M657.568 505.288C677.637 493.701 677.585 475.006 657.452 463.532C637.319 452.058 604.729 452.149 584.66 463.735C564.591 475.322 564.643 494.017 584.776 505.491C604.909 516.965 637.499 516.874 657.568 505.288Z" fill="#E0E7EC"/>
<path fill-rule="evenodd" clip-rule="evenodd" d="M620.986 479.508C623.32 480.838 623.3 483.021 620.942 484.383C618.583 485.745 614.778 485.77 612.444 484.44C610.11 483.109 610.13 480.927 612.488 479.565C614.847 478.203 618.651 478.178 620.986 479.508ZM622.975 494.422C618.744 492.011 618.78 488.055 623.055 485.587C627.33 483.119 634.225 483.073 638.456 485.484L622.975 494.422Z" fill="#C7D3DC"/>
<path fill-rule="evenodd" clip-rule="evenodd" d="M1024.86 393.608C1044.93 382.021 1044.87 363.326 1024.74 351.852C1004.61 340.378 972.018 340.469 951.949 352.055C931.881 363.642 931.933 382.337 952.066 393.811C972.199 405.285 1004.79 405.194 1024.86 393.608Z" fill="#E0E7EC"/>
<path fill-rule="evenodd" clip-rule="evenodd" d="M988.275 367.828C990.609 369.159 990.59 371.341 988.231 372.703C985.872 374.065 982.068 374.09 979.733 372.76C977.399 371.429 977.419 369.247 979.778 367.885C982.136 366.523 985.941 366.498 988.275 367.828ZM990.264 382.743C986.033 380.331 986.069 376.376 990.344 373.907C994.619 371.439 1001.51 371.393 1005.75 373.804L990.264 382.743Z" fill="#C7D3DC"/>
<path fill-rule="evenodd" clip-rule="evenodd" d="M670.062 447.887C669.105 448.439 669.108 449.33 670.067 449.877L681.174 456.207C682.133 456.754 683.687 456.75 684.643 456.197L895.571 334.418C896.528 333.866 896.525 332.975 895.566 332.428L884.459 326.098C883.5 325.551 881.946 325.555 880.99 326.108L670.062 447.887ZM693.757 461.391C692.8 461.944 692.803 462.835 693.762 463.382L704.869 469.711C705.828 470.258 707.382 470.254 708.338 469.702L955.604 326.943C956.561 326.391 956.558 325.5 955.598 324.953L944.492 318.623C943.532 318.076 941.979 318.08 941.022 318.632L693.757 461.391Z" fill="#E0E7EC"/>
<rect width="188.816" height="16.7835" rx="2" transform="matrix(0.866025 -0.5 0.868804 0.495155 644.635 435.382)" fill="#94A2AB"/>
<path fill-rule="evenodd" clip-rule="evenodd" d="M670.353 552.276C669.396 552.828 669.398 553.719 670.358 554.266L681.464 560.596C682.424 561.143 683.978 561.139 684.934 560.586L895.862 438.807C896.819 438.255 896.816 437.364 895.857 436.817L884.75 430.487C883.79 429.94 882.237 429.944 881.28 430.497L670.353 552.276ZM694.048 565.78C693.091 566.333 693.094 567.224 694.053 567.771L705.16 574.101C706.119 574.648 707.673 574.643 708.629 574.091L937.726 441.822C938.683 441.27 938.68 440.378 937.72 439.832L926.614 433.502C925.654 432.955 924.101 432.959 923.144 433.511L694.048 565.78Z" fill="#E0E7EC"/>
<rect width="272.734" height="16.7835" rx="2" transform="matrix(0.866025 -0.5 0.868804 0.495155 644.925 539.771)" fill="#94A2AB"/>
<rect width="83.9182" height="29.3712" rx="14.6856" transform="matrix(0.866025 -0.5 0.868804 0.495155 1017.68 431.208)" fill="#E0E7EC"/>
<rect width="293.714" height="29.3712" rx="4" transform="matrix(0.866025 -0.5 0.868804 0.495155 737.883 592.751)" fill="white"/>
</svg>
