<?xml version="1.0" encoding="utf-8"?>
<!-- Generator: Adobe Illustrator 23.1.0, SVG Export Plug-In . SVG Version: 6.00 Build 0)  -->
<svg version="1.1" id="图层_1" xmlns="http://www.w3.org/2000/svg" xmlns:xlink="http://www.w3.org/1999/xlink" x="0px" y="0px"
	 viewBox="0 0 612 792" style="enable-background:new 0 0 612 792;" xml:space="preserve">
<style type="text/css">
	.st0{fill:#F1F4FB;}
	.st1{fill:#FEFEFE;}
	.st2{fill:#F7F9FD;}
</style>
<g>
	<path class="st0" d="M1108.48,935.91c-586.02,0-1172.05,0-1758.07,0.09c-3.61,0-4.41-0.8-4.41-4.41
		c0.1-357.86,0.09-715.72,0.09-1073.58c0.64-0.64,1.28-1.28,1.92-1.92c136.95,0,273.89,0,410.84,0c1.74,1.17,3.33,2.89,5.24,3.42
		c44.83,12.5,87.49,30.21,127.53,53.93c36.31,21.51,69.23,47.1,95.26,80.85C7.99,21.64,23.43,51.67,29.65,85.8
		c3.7,20.31,5.75,40.91,8.83,61.33c3.25,21.53,6.49,43.08,10.37,64.5c5.42,29.86,12.57,59.27,25.77,86.86
		c16.59,34.68,41.63,62.47,70.97,86.71c34.3,28.33,72.42,51.03,110.04,74.49c30.21,18.84,57.54,41.36,76.3,71.9
		c15.68,25.53,28.79,52.66,42.8,79.2c16.78,31.78,41.79,54.91,74.08,70.05c44.4,20.82,92.12,29.3,140.17,36.17
		c26.59,3.8,53.45,6.05,79.8,11.06c43.44,8.26,86.82,17.19,129.75,27.75c29.84,7.34,58.38,19.23,82.72,38.73
		c25.07,20.08,48.69,42.03,74.31,61.35c22.47,16.94,45.89,33.13,70.66,46.35c21.5,11.48,45.49,18.29,68.34,27.27
		C1099.3,931.39,1103.84,933.77,1108.48,935.91z"/>
	<path class="st1" d="M-160.52-143.91c474.03,0,948.07,0,1422.1-0.09c3.61,0,4.41,0.8,4.41,4.41
		c-0.1,333.86-0.09,667.73-0.09,1001.59c-19.66-5.19-40-8.64-58.81-16c-22.35-8.74-43.84-20.02-64.88-31.69
		c-29.29-16.25-57.5-34.32-83.28-55.96c-28.53-23.95-60.74-40.55-96.92-50.2c-48.52-12.94-98.14-18.45-147.82-23.52
		c-31.17-3.18-62.52-4.55-93.77-6.95c-22.04-1.7-44.05-3.68-66.06-5.7c-29.16-2.67-57.54-9.11-85.27-18.4
		c-26.28-8.8-49.75-22.43-69.37-42.09c-16.72-16.76-28.53-37.08-40.14-57.49c-12.8-22.5-26.78-44.15-44.43-63.28
		c-25.83-28-57.02-48.52-90.83-65.35c-38.21-19.02-75.68-39.28-110.64-63.9c-21.89-15.42-41.82-33.05-58.92-53.66
		c-21.83-26.31-36.94-56.57-46.09-89.16c-11.06-39.39-20.03-79.39-29.07-119.31c-5.81-25.67-10.4-51.56-21.87-75.6
		C39.12-15.3,11.24-46.61-22.85-72.55c-35.85-27.29-75.55-47.56-117.91-62.77C-147.51-137.74-153.94-141.02-160.52-143.91z"/>
	<path class="st2" d="M-160.52-143.91c6.58,2.88,13.01,6.17,19.75,8.59c42.36,15.2,82.05,35.48,117.91,62.77
		c34.09,25.95,61.97,57.25,80.6,96.29c11.47,24.03,16.05,49.93,21.87,75.6c9.04,39.92,18.01,79.92,29.07,119.31
		c9.15,32.59,24.26,62.85,46.09,89.16c17.1,20.61,37.03,38.24,58.92,53.66c34.96,24.62,72.43,44.89,110.64,63.9
		c33.81,16.83,65,37.35,90.83,65.35c17.65,19.13,31.64,40.79,44.43,63.28c11.61,20.41,23.42,40.74,40.14,57.49
		c19.62,19.66,43.09,33.3,69.37,42.09c27.73,9.28,56.11,15.73,85.27,18.4c22.01,2.02,44.02,4,66.06,5.7
		c31.25,2.41,62.6,3.77,93.77,6.95c49.68,5.07,99.29,10.58,147.82,23.52c36.17,9.64,68.39,26.25,96.92,50.2
		c25.77,21.64,53.98,39.71,83.28,55.96c21.04,11.67,42.53,22.95,64.88,31.69c18.81,7.36,39.15,10.82,58.81,16
		c0,23.52-0.06,47.03,0.08,70.55c0.02,2.87-0.58,3.45-3.44,3.44c-51.35-0.11-102.71-0.08-154.07-0.08
		c-4.64-2.14-9.19-4.52-13.93-6.38c-22.85-8.99-46.84-15.79-68.34-27.27c-24.77-13.22-48.19-29.41-70.66-46.35
		c-25.62-19.31-49.24-41.26-74.31-61.35c-24.34-19.5-52.88-31.39-82.72-38.73c-42.93-10.56-86.3-19.49-129.75-27.75
		c-26.35-5.01-53.21-7.26-79.8-11.06c-48.05-6.87-95.77-15.35-140.17-36.17c-32.29-15.14-57.3-38.28-74.08-70.05
		c-14.01-26.54-27.12-53.67-42.8-79.2c-18.76-30.55-46.09-53.07-76.3-71.9c-37.62-23.46-75.74-46.15-110.04-74.49
		c-29.33-24.23-54.37-52.02-70.97-86.71c-13.2-27.59-20.36-57-25.77-86.86c-3.88-21.42-7.12-42.97-10.37-64.5
		c-3.08-20.42-5.13-41.03-8.83-61.33C23.43,51.67,7.99,21.64-13.12-5.71c-26.04-33.74-58.96-59.34-95.26-80.85
		c-40.04-23.72-82.69-41.43-127.53-53.93c-1.92-0.53-3.5-2.25-5.24-3.42C-214.27-143.91-187.39-143.91-160.52-143.91z"/>
	<path class="st1" d="M-651.99-143.91c-0.64,0.64-1.28,1.28-1.92,1.92C-653.27-142.63-652.63-143.27-651.99-143.91z"/>
</g>
</svg>
